<svg xmlns="http://www.w3.org/2000/svg" xmlns:xlink="http://www.w3.org/1999/xlink" contentStyleType="text/css" data-diagram-type="DESCRIPTION" height="389.5833px" preserveAspectRatio="none" style="width:1026px;height:389px;" version="1.1" viewBox="0 0 1026 389" width="1026.0417px" zoomAndPan="magnify"><defs><linearGradient id="gcj0o1f4be1kh0" x1="50%" x2="50%" y1="0%" y2="100%"><stop offset="0%" stop-color="#F18E3E"/><stop offset="100%" stop-color="#EC7211"/></linearGradient></defs><g><!--cluster Frontend--><g class="cluster" data-entity="Frontend" data-source-line="12" data-uid="ent0002" id="cluster_Frontend"><rect fill="#FFFFFF" height="116.6667" rx="4.1667" ry="4.1667" style="stroke:#4E5D6C;stroke-width:2.0833;" width="141.7917" x="7.2917" y="173.9583"/><text fill="#4E5D6C" font-family="Verdana" font-size="12.5" font-weight="bold" lengthAdjust="spacing" textLength="64.4897" x="45.9426" y="192.8528">Frontend</text></g><!--cluster Backend--><g class="cluster" data-entity="Backend" data-source-line="17" data-uid="ent0004" id="cluster_Backend"><rect fill="#FFFFFF" height="209.375" rx="4.1667" ry="4.1667" style="stroke:#4E5D6C;stroke-width:2.0833;" width="446.3125" x="178.25" y="173.9583"/><text fill="#4E5D6C" font-family="Verdana" font-size="12.5" font-weight="bold" lengthAdjust="spacing" textLength="60.0098" x="371.4014" y="192.8528">Backend</text></g><!--cluster Music Services--><g class="cluster" data-entity="Music Services" data-source-line="24" data-uid="ent0008" id="cluster_Music Services"><rect fill="#FFFFFF" height="209.375" rx="4.1667" ry="4.1667" style="stroke:#4E5D6C;stroke-width:2.0833;" width="179.9792" x="653.7292" y="7.2917"/><text fill="#4E5D6C" font-family="Verdana" font-size="12.5" font-weight="bold" lengthAdjust="spacing" textLength="104.2297" x="691.6039" y="26.1861">Music Services</text></g><!--cluster DB layer--><g class="cluster" data-entity="DB layer" data-source-line="30" data-uid="ent0011" id="cluster_DB layer"><rect fill="#FFFFFF" height="116.6667" rx="4.1667" ry="4.1667" style="stroke:#4E5D6C;stroke-width:2.0833;" width="157.5208" x="862.875" y="183.3333"/><text fill="#4E5D6C" font-family="Verdana" font-size="12.5" font-weight="bold" lengthAdjust="spacing" textLength="59.7656" x="911.7526" y="202.2278">DB layer</text></g><!--entity Web App--><g class="entity" data-entity="Web App" data-source-line="13" data-uid="ent0003" id="entity_Web App"><rect fill="url(#gcj0o1f4be1kh0)" height="56.2174" rx="4.1667" ry="4.1667" style="stroke:#EC7211;stroke-width:1.0417;" width="108.4615" x="23.9583" y="217.7292"/><rect fill="url(#gcj0o1f4be1kh0)" height="10.4167" style="stroke:#EC7211;stroke-width:1.0417;" width="15.625" x="111.5865" y="222.9375"/><rect fill="url(#gcj0o1f4be1kh0)" height="2.0833" style="stroke:#EC7211;stroke-width:1.0417;" width="4.1667" x="109.5032" y="225.0208"/><rect fill="url(#gcj0o1f4be1kh0)" height="2.0833" style="stroke:#EC7211;stroke-width:1.0417;" width="4.1667" x="109.5032" y="229.1875"/><text fill="#FFFFFF" font-family="Verdana" font-size="12.5" lengthAdjust="spacing" textLength="56.3782" x="44.7917" y="255.3736">Web App</text></g><!--entity Auth Service--><g class="entity" data-entity="Auth Service" data-source-line="18" data-uid="ent0005" id="entity_Auth Service"><rect fill="url(#gcj0o1f4be1kh0)" height="56.2174" rx="4.1667" ry="4.1667" style="stroke:#EC7211;stroke-width:1.0417;" width="131.5511" x="235.4688" y="310.4375"/><rect fill="url(#gcj0o1f4be1kh0)" height="10.4167" style="stroke:#EC7211;stroke-width:1.0417;" width="15.625" x="346.1865" y="315.6458"/><rect fill="url(#gcj0o1f4be1kh0)" height="2.0833" style="stroke:#EC7211;stroke-width:1.0417;" width="4.1667" x="344.1032" y="317.7292"/><rect fill="url(#gcj0o1f4be1kh0)" height="2.0833" style="stroke:#EC7211;stroke-width:1.0417;" width="4.1667" x="344.1032" y="321.8958"/><text fill="#FFFFFF" font-family="Verdana" font-size="12.5" lengthAdjust="spacing" textLength="79.4678" x="256.3021" y="348.0819">Auth Service</text></g><!--entity Music Service--><g class="entity" data-entity="Music Service" data-source-line="19" data-uid="ent0006" id="entity_Music Service"><rect fill="url(#gcj0o1f4be1kh0)" height="56.2174" rx="4.1667" ry="4.1667" style="stroke:#EC7211;stroke-width:1.0417;" width="137.8194" x="470.0729" y="217.7292"/><rect fill="url(#gcj0o1f4be1kh0)" height="10.4167" style="stroke:#EC7211;stroke-width:1.0417;" width="15.625" x="587.059" y="222.9375"/><rect fill="url(#gcj0o1f4be1kh0)" height="2.0833" style="stroke:#EC7211;stroke-width:1.0417;" width="4.1667" x="584.9757" y="225.0208"/><rect fill="url(#gcj0o1f4be1kh0)" height="2.0833" style="stroke:#EC7211;stroke-width:1.0417;" width="4.1667" x="584.9757" y="229.1875"/><text fill="#FFFFFF" font-family="Verdana" font-size="12.5" lengthAdjust="spacing" textLength="85.7361" x="490.9063" y="255.3736">Music Service</text></g><!--entity Recommendation Service--><g class="entity" data-entity="Recommendation Service" data-source-line="20" data-uid="ent0007" id="entity_Recommendation Service"><rect fill="url(#gcj0o1f4be1kh0)" height="56.2174" rx="4.1667" ry="4.1667" style="stroke:#EC7211;stroke-width:1.0417;" width="212.6546" x="194.9167" y="217.7292"/><rect fill="url(#gcj0o1f4be1kh0)" height="10.4167" style="stroke:#EC7211;stroke-width:1.0417;" width="15.625" x="386.738" y="222.9375"/><rect fill="url(#gcj0o1f4be1kh0)" height="2.0833" style="stroke:#EC7211;stroke-width:1.0417;" width="4.1667" x="384.6546" y="225.0208"/><rect fill="url(#gcj0o1f4be1kh0)" height="2.0833" style="stroke:#EC7211;stroke-width:1.0417;" width="4.1667" x="384.6546" y="229.1875"/><text fill="#FFFFFF" font-family="Verdana" font-size="12.5" lengthAdjust="spacing" textLength="160.5713" x="215.75" y="255.3736">Recommendation Service</text></g><!--entity Spotify Service--><g class="entity" data-entity="Spotify Service" data-source-line="25" data-uid="ent0009" id="entity_Spotify Service"><rect fill="url(#gcj0o1f4be1kh0)" height="56.2174" rx="4.1667" ry="4.1667" style="stroke:#EC7211;stroke-width:1.0417;" width="145.9432" x="670.75" y="143.7708"/><rect fill="url(#gcj0o1f4be1kh0)" height="10.4167" style="stroke:#EC7211;stroke-width:1.0417;" width="15.625" x="795.8599" y="148.9792"/><rect fill="url(#gcj0o1f4be1kh0)" height="2.0833" style="stroke:#EC7211;stroke-width:1.0417;" width="4.1667" x="793.7765" y="151.0625"/><rect fill="url(#gcj0o1f4be1kh0)" height="2.0833" style="stroke:#EC7211;stroke-width:1.0417;" width="4.1667" x="793.7765" y="155.2292"/><text fill="#FFFFFF" font-family="Verdana" font-size="12.5" lengthAdjust="spacing" textLength="93.8599" x="691.5833" y="181.4153">Spotify Service</text></g><!--entity Deezer Service--><g class="entity" data-entity="Deezer Service" data-source-line="26" data-uid="ent0010" id="entity_Deezer Service"><rect fill="url(#gcj0o1f4be1kh0)" height="56.2174" rx="4.1667" ry="4.1667" style="stroke:#EC7211;stroke-width:1.0417;" width="146.6512" x="670.3958" y="51.0625"/><rect fill="url(#gcj0o1f4be1kh0)" height="10.4167" style="stroke:#EC7211;stroke-width:1.0417;" width="15.625" x="796.2137" y="56.2708"/><rect fill="url(#gcj0o1f4be1kh0)" height="2.0833" style="stroke:#EC7211;stroke-width:1.0417;" width="4.1667" x="794.1304" y="58.3542"/><rect fill="url(#gcj0o1f4be1kh0)" height="2.0833" style="stroke:#EC7211;stroke-width:1.0417;" width="4.1667" x="794.1304" y="62.5208"/><text fill="#FFFFFF" font-family="Verdana" font-size="12.5" lengthAdjust="spacing" textLength="94.5679" x="691.2292" y="88.7069">Deezer Service</text></g><!--entity PostgreSQL--><g class="entity" data-entity="PostgreSQL" data-source-line="31" data-uid="ent0012" id="entity_PostgreSQL"><rect fill="url(#gcj0o1f4be1kh0)" height="56.2174" rx="4.1667" ry="4.1667" style="stroke:#EC7211;stroke-width:1.0417;" width="124.1842" x="879.5417" y="227.1042"/><rect fill="url(#gcj0o1f4be1kh0)" height="10.4167" style="stroke:#EC7211;stroke-width:1.0417;" width="15.625" x="982.8925" y="232.3125"/><rect fill="url(#gcj0o1f4be1kh0)" height="2.0833" style="stroke:#EC7211;stroke-width:1.0417;" width="4.1667" x="980.8092" y="234.3958"/><rect fill="url(#gcj0o1f4be1kh0)" height="2.0833" style="stroke:#EC7211;stroke-width:1.0417;" width="4.1667" x="980.8092" y="238.5625"/><text fill="#FFFFFF" font-family="Verdana" font-size="12.5" lengthAdjust="spacing" textLength="72.1008" x="900.375" y="264.7486">PostgreSQL</text></g><!--link Web App to Auth Service--><g class="link" data-entity-1="Web App" data-entity-2="Auth Service" data-source-line="35" data-uid="lnk13" id="link_Web App_Auth Service"><path d="M132.9063,274.3229 C144.9479,280.3333 157.7708,286.4375 169.9167,291.6667 C190.7813,300.6563 208.1102,307.3049 229.0893,314.7528" fill="none" id="Web App-to-Auth Service" style="stroke:#EC7211;stroke-width:3.125;"/><polygon fill="#EC7211" points="234.9792,316.8438,227.5384,309.7807,230.071,315.1013,224.7504,317.6338,234.9792,316.8438" style="stroke:#EC7211;stroke-width:3.125;"/></g><!--link Web App to Music Service--><g class="link" data-entity-1="Web App" data-entity-2="Music Service" data-source-line="36" data-uid="lnk14" id="link_Web App_Music Service"><path d="M125.1563,217.4167 C139.0313,210.2917 154.6458,203.6354 169.9167,200 C272.6667,175.5104 303.4583,182.2292 407.5729,200 C428.5,203.5729 444.6531,208.0618 464.5385,215.1347" fill="none" id="Web App-to-Music Service" style="stroke:#EC7211;stroke-width:3.125;"/><polygon fill="#EC7211" points="470.4271,217.2292,462.9905,210.1617,465.5199,215.4838,460.1979,218.0132,470.4271,217.2292" style="stroke:#EC7211;stroke-width:3.125;"/></g><!--link Web App to Recommendation Service--><g class="link" data-entity-1="Web App" data-entity-2="Recommendation Service" data-source-line="37" data-uid="lnk15" id="link_Web App_Recommendation Service"><path d="M132.7188,245.8333 C151.375,245.8333 166.75,245.8333 188.1458,245.8333" fill="none" id="Web App-to-Recommendation Service" style="stroke:#EC7211;stroke-width:3.125;"/><polygon fill="#EC7211" points="194.3958,245.8333,185.0208,241.6667,189.1875,245.8333,185.0208,250,194.3958,245.8333" style="stroke:#EC7211;stroke-width:3.125;"/></g><!--link Music Service to Spotify Service--><g class="link" data-entity-1="Music Service" data-entity-2="Spotify Service" data-source-line="39" data-uid="lnk16" id="link_Music Service_Spotify Service"><path d="M608.3542,220.8958 C628.3438,213.6042 644.3894,207.7476 664.6186,200.3622" fill="none" id="Music Service-to-Spotify Service" style="stroke:#EC7211;stroke-width:3.125;"/><polygon fill="#EC7211" points="670.4896,198.2188,660.2542,197.5199,665.5971,200.0049,663.1121,205.3479,670.4896,198.2188" style="stroke:#EC7211;stroke-width:3.125;"/></g><!--link Music Service to Deezer Service--><g class="link" data-entity-1="Music Service" data-entity-2="Deezer Service" data-source-line="40" data-uid="lnk17" id="link_Music Service_Deezer Service"><path d="M559.9479,217.2396 C579.375,190.9271 610.9792,152.1667 645.3958,126.0417 C654.3542,119.2396 658.9525,116.0099 669.1713,110.5203" fill="none" id="Music Service-to-Deezer Service" style="stroke:#EC7211;stroke-width:3.125;"/><polygon fill="#EC7211" points="674.6771,107.5625,664.4465,108.3286,670.0889,110.0273,668.3902,115.6697,674.6771,107.5625" style="stroke:#EC7211;stroke-width:3.125;"/></g><!--link Music Service to PostgreSQL--><g class="link" data-entity-1="Music Service" data-entity-2="PostgreSQL" data-source-line="41" data-uid="lnk18" id="link_Music Service_PostgreSQL"><path d="M607.9792,247.4271 C683.9792,249.1979 799.7517,251.9167 872.9705,253.625" fill="none" id="Music Service-to-PostgreSQL" style="stroke:#EC7211;stroke-width:3.125;"/><polygon fill="#EC7211" points="879.2188,253.7708,869.9435,249.3866,874.0118,253.6493,869.7491,257.7177,879.2188,253.7708" style="stroke:#EC7211;stroke-width:3.125;"/></g><!--link Auth Service to PostgreSQL--><g class="link" data-entity-1="Auth Service" data-entity-2="PostgreSQL" data-source-line="43" data-uid="lnk19" id="link_Auth Service_PostgreSQL"><path d="M367.2188,342.8958 C470,347.9375 675.5833,350.4896 842.0417,305.2083 C859.8125,300.375 872.5879,295.0541 888.5254,286.6374" fill="none" id="Auth Service-to-PostgreSQL" style="stroke:#EC7211;stroke-width:3.125;"/><polygon fill="#EC7211" points="894.0521,283.7188,883.8163,284.4123,889.4465,286.151,887.7079,291.7812,894.0521,283.7188" style="stroke:#EC7211;stroke-width:3.125;"/></g><!--link Recommendation Service to Music Service--><g class="link" data-entity-1="Recommendation Service" data-entity-2="Music Service" data-source-line="45" data-uid="lnk20" id="link_Recommendation Service_Music Service"><path d="M408.0521,245.8333 C428.9792,245.8333 444.1563,245.8333 463.4375,245.8333" fill="none" id="Recommendation Service-to-Music Service" style="stroke:#EC7211;stroke-width:3.125;"/><polygon fill="#EC7211" points="469.6875,245.8333,460.3125,241.6667,464.4792,245.8333,460.3125,250,469.6875,245.8333" style="stroke:#EC7211;stroke-width:3.125;"/></g><!--link Recommendation Service to PostgreSQL--><g class="link" data-entity-1="Recommendation Service" data-entity-2="PostgreSQL" data-source-line="46" data-uid="lnk21" id="link_Recommendation Service_PostgreSQL"><path d="M389.7604,274.4583 C415.3646,281.5417 443.5833,288.1146 470.0729,291.6667 C616.0417,311.2396 782.8604,286.5235 872.9437,269.3672" fill="none" id="Recommendation Service-to-PostgreSQL" style="stroke:#EC7211;stroke-width:3.125;"/><polygon fill="#EC7211" points="879.0833,268.1979,869.0943,265.8587,873.967,269.1723,870.6534,274.0449,879.0833,268.1979" style="stroke:#EC7211;stroke-width:3.125;"/></g><!--link Spotify Service to PostgreSQL--><g class="link" data-entity-1="Spotify Service" data-entity-2="PostgreSQL" data-source-line="48" data-uid="lnk22" id="link_Spotify Service_PostgreSQL"><path d="M811.8854,200.4375 C833.6979,209.7188 852.0301,217.522 873.4051,226.6157" fill="none" id="Spotify Service-to-PostgreSQL" style="stroke:#EC7211;stroke-width:3.125;"/><polygon fill="#EC7211" points="879.1563,229.0625,872.1607,221.5582,874.3636,227.0235,868.8983,229.2265,879.1563,229.0625" style="stroke:#EC7211;stroke-width:3.125;"/></g><!--link Deezer Service to PostgreSQL--><g class="link" data-entity-1="Deezer Service" data-entity-2="PostgreSQL" data-source-line="50" data-uid="lnk23" id="link_Deezer Service_PostgreSQL"><path d="M814.1979,107.5833 C824.0104,113.0104 833.6146,119.1667 842.0417,126.0417 C877.1354,154.6458 903.7032,192.8208 921.0782,221.3" fill="none" id="Deezer Service-to-PostgreSQL" style="stroke:#EC7211;stroke-width:3.125;"/><polygon fill="#EC7211" points="924.3333,226.6354,923.0076,216.4622,921.6207,222.1892,915.8937,220.8024,924.3333,226.6354" style="stroke:#EC7211;stroke-width:3.125;"/></g><!--SRC=[VL5DKy8m4BtdLwnuK0yzUNS6g9vmHks1WyCXbANDq6OxcqL4n_zk0mLCAEQMj-yZ-t8b9TO8UkCIOcqBL1Kk1OI0JL4AB0nZBeQiKZUGoROojb1kPMoZMTVGw7ob2_G31CziBIhyGpXYyAq0HYszO5hRnPWgOfYMHh35XyoqsKFNzxkZVdnWaYJmn6G5xS9VL9S7WmCwsFc-Jt4EmwQPdMHZOeGC-SFaw4AjVyL9EbnBUI3EFF2yTYOFa3VCgQvRYVPDd4R7iCTFGRQwkX0OEBekDsj8p78R1AM8NyWz0QaMFTSEOQAtBI5mJqTGURJpVI4d1MFsEkdqAIwDHSZ9slrNEhWDFlbE7VjhdH_YIg9XL4yqlLILYdHxzba7lQoubLxItxLLk44VuS8x-rVybnpwnXlrSQ9zpYY_]--></g></svg>